<mxfile host="app.diagrams.net" modified="2024-04-29T05:00:39.758Z" agent="Mozilla/5.0 (X11; Linux x86_64) AppleWebKit/537.36 (KHTML, like Gecko) Chrome/123.0.0.0 Safari/537.36 Edg/123.0.0.0" version="24.3.1" etag="7s1jv1eqDJpYDvywQWtU" type="github">
  <diagram name="第 1 页" id="3gQoLhFrPC2apvr4GPEJ">
    <mxGraphModel>
      <root>
        <mxCell id="0" />
        <mxCell id="1" parent="0" />
      </root>
    </mxGraphModel>
  </diagram>
</mxfile>
